<svg version="1.1" id="Layer_1" xmlns="http://www.w3.org/2000/svg" xmlns:xlink="http://www.w3.org/1999/xlink" x="0px" y="0px"
	 width="100%" viewBox="0 0 512 512" enable-background="new 0 0 512 512" xml:space="preserve">
<path fill="#010100" opacity="1.000000" stroke="none" 
	d="
M278.000000,513.000000 
	C185.355820,513.000000 93.211639,513.000000 1.033728,513.000000 
	C1.033728,342.397461 1.033728,171.794907 1.033728,1.096182 
	C171.560867,1.096182 342.121796,1.096182 512.841370,1.096182 
	C512.841370,171.666550 512.841370,342.333252 512.841370,513.000000 
	C434.794891,513.000000 356.647430,513.000000 278.000000,513.000000 
M64.228287,369.767883 
	C62.127678,411.623260 60.027069,453.478668 57.923668,495.389740 
	C191.001389,495.389740 323.392883,495.389740 456.118378,495.389740 
	C450.629456,388.397583 445.159729,281.779816 439.676849,174.905869 
	C317.739471,174.905869 196.194702,174.905869 74.533882,174.905869 
	C74.360756,175.852051 74.171371,176.483582 74.138824,177.123093 
	C72.749748,204.414764 71.396454,231.708282 69.992439,258.999176 
	C68.109009,295.608734 66.187698,332.216339 64.228287,369.767883 
M142.403076,56.969570 
	C131.579514,58.258060 120.755966,59.546551 109.564911,60.878788 
	C113.403679,93.341156 117.151871,125.037567 120.920258,156.904755 
	C135.099472,156.904755 148.873749,156.904755 163.062546,156.904755 
	C160.899384,147.754440 158.778397,138.895660 156.716370,130.023163 
	C155.154160,123.301331 157.440460,119.539703 164.181778,117.898132 
	C180.666718,113.883888 197.169708,109.943840 213.662277,105.960815 
	C223.629120,103.553780 233.590073,101.122246 243.720093,98.661285 
	C241.605072,80.799911 239.555984,63.495445 237.445404,45.671513 
	C205.742126,49.455990 174.522827,53.182693 142.403076,56.969570 
M383.398499,138.933853 
	C386.994507,123.588844 390.590515,108.243828 394.293335,92.443031 
	C360.329834,84.492882 326.776184,76.638672 292.876556,68.703468 
	C291.398895,75.238808 290.067078,81.129013 288.567810,87.759964 
	C292.559937,86.856323 295.607513,86.210487 298.632904,85.473579 
	C308.432739,83.086578 311.603546,85.020020 313.936859,94.761124 
	C318.582245,114.154388 323.304596,133.529434 327.866150,152.942322 
	C328.512939,155.695007 329.168732,157.267853 332.591858,157.215851 
	C346.903503,156.998444 361.221191,157.047424 375.534790,157.187256 
	C378.487366,157.216080 379.605164,156.164474 380.102234,153.355347 
	C380.911926,148.779297 382.135040,144.276382 383.398499,138.933853 
M229.499969,157.125381 
	C256.555847,157.125381 283.611755,157.125381 311.063477,157.125381 
	C306.639313,138.822327 302.402710,121.295273 298.098663,103.489151 
	C256.697906,113.448868 216.048752,123.227776 175.271088,133.037598 
	C176.995148,140.323441 178.661484,146.769623 179.998886,153.283340 
	C180.613373,156.276230 181.922546,157.235413 185.006836,157.199631 
	C199.502884,157.031387 214.001953,157.125137 229.499969,157.125381 
M431.600128,156.033630 
	C428.339233,150.432312 424.446686,145.094238 421.975159,139.163940 
	C418.789337,131.519669 413.297180,129.902771 406.143860,131.224243 
	C404.750854,131.481552 402.805511,132.865128 402.477112,134.093445 
	C400.507507,141.459351 398.935944,148.931702 397.143433,156.750443 
	C408.783966,156.750443 420.036987,156.750443 431.600128,156.033630 
M94.470680,157.018967 
	C97.238251,157.018967 100.005821,157.018967 103.349968,157.018967 
	C102.425690,148.707062 101.625084,141.145248 100.688271,133.600357 
	C100.586067,132.777191 99.738884,131.452972 99.167137,131.414932 
	C98.208870,131.351196 96.739197,131.854446 96.273331,132.607178 
	C91.424965,140.440811 86.734161,148.371964 81.554649,157.018967 
	C86.252426,157.018967 89.874222,157.018967 94.470680,157.018967 
z"/>
<path fill="#FAAD4A" opacity="1.000000" stroke="none" 
	d="
M64.255470,369.296326 
	C66.187698,332.216339 68.109009,295.608734 69.992439,258.999176 
	C71.396454,231.708282 72.749748,204.414764 74.138824,177.123093 
	C74.171371,176.483582 74.360756,175.852051 74.533882,174.905869 
	C196.194702,174.905869 317.739471,174.905869 439.676849,174.905869 
	C445.159729,281.779816 450.629456,388.397583 456.118378,495.389740 
	C323.392883,495.389740 191.001389,495.389740 57.923668,495.389740 
	C60.027069,453.478668 62.127678,411.623260 64.255470,369.296326 
M231.845261,343.745026 
	C276.435883,359.391785 321.995728,331.287262 329.311218,287.430450 
	C331.535583,274.095276 330.506500,260.206085 330.783295,246.566864 
	C330.839417,243.801712 331.459869,242.257812 334.151093,240.851562 
	C344.475830,235.456375 349.841705,224.136688 347.721222,213.243469 
	C345.435608,201.502014 335.338898,192.540909 323.779877,191.994827 
	C311.242096,191.402496 300.243286,199.175964 297.018585,210.908508 
	C293.787506,222.664246 298.847443,234.766037 309.590759,240.740555 
	C311.637573,241.878830 313.493744,242.579422 313.414154,245.686783 
	C313.145508,256.177063 313.594299,266.691223 313.154510,277.170471 
	C311.952118,305.820618 289.642975,328.262848 260.316315,330.702576 
	C233.354385,332.945557 206.736725,313.102753 202.134430,285.688141 
	C200.006393,273.012054 201.131653,259.799622 200.607208,246.837402 
	C200.483932,243.790756 201.428848,242.220215 204.223663,240.727005 
	C212.806717,236.141235 217.411804,228.658630 217.900467,218.952103 
	C218.543930,206.171097 209.542709,194.993317 196.823380,192.349106 
	C184.705276,189.829880 172.058899,196.939026 167.565903,208.796249 
	C163.037613,220.746597 167.865326,234.492218 179.274109,240.532181 
	C182.531219,242.256561 183.265884,244.146957 183.203644,247.417130 
	C183.035675,256.244598 183.091110,265.077820 183.159866,273.907928 
	C183.404755,305.361206 201.818878,331.998871 231.845261,343.745026 
z"/>
<path fill="#2A8DE5" opacity="1.000000" stroke="none" 
	d="
M142.853302,56.939484 
	C174.522827,53.182693 205.742126,49.455990 237.445404,45.671513 
	C239.555984,63.495445 241.605072,80.799911 243.720093,98.661285 
	C233.590073,101.122246 223.629120,103.553780 213.662277,105.960815 
	C197.169708,109.943840 180.666718,113.883888 164.181778,117.898132 
	C157.440460,119.539703 155.154160,123.301331 156.716370,130.023163 
	C158.778397,138.895660 160.899384,147.754440 163.062546,156.904755 
	C148.873749,156.904755 135.099472,156.904755 120.920258,156.904755 
	C117.151871,125.037567 113.403679,93.341156 109.564911,60.878788 
	C120.755966,59.546551 131.579514,58.258060 142.853302,56.939484 
z"/>
<path fill="#82D716" opacity="1.000000" stroke="none" 
	d="
M383.291077,139.338226 
	C382.135040,144.276382 380.911926,148.779297 380.102234,153.355347 
	C379.605164,156.164474 378.487366,157.216080 375.534790,157.187256 
	C361.221191,157.047424 346.903503,156.998444 332.591858,157.215851 
	C329.168732,157.267853 328.512939,155.695007 327.866150,152.942322 
	C323.304596,133.529434 318.582245,114.154388 313.936859,94.761124 
	C311.603546,85.020020 308.432739,83.086578 298.632904,85.473579 
	C295.607513,86.210487 292.559937,86.856323 288.567810,87.759964 
	C290.067078,81.129013 291.398895,75.238808 292.876556,68.703468 
	C326.776184,76.638672 360.329834,84.492882 394.293335,92.443031 
	C390.590515,108.243828 386.994507,123.588844 383.291077,139.338226 
z"/>
<path fill="#EC5480" opacity="1.000000" stroke="none" 
	d="
M228.999969,157.125381 
	C214.001953,157.125137 199.502884,157.031387 185.006836,157.199631 
	C181.922546,157.235413 180.613373,156.276230 179.998886,153.283340 
	C178.661484,146.769623 176.995148,140.323441 175.271088,133.037598 
	C216.048752,123.227776 256.697906,113.448868 298.098663,103.489151 
	C302.402710,121.295273 306.639313,138.822327 311.063477,157.125381 
	C283.611755,157.125381 256.555847,157.125381 228.999969,157.125381 
z"/>
<path fill="#8A693A" opacity="1.000000" stroke="none" 
	d="
M431.445068,156.392029 
	C420.036987,156.750443 408.783966,156.750443 397.143433,156.750443 
	C398.935944,148.931702 400.507507,141.459351 402.477112,134.093445 
	C402.805511,132.865128 404.750854,131.481552 406.143860,131.224243 
	C413.297180,129.902771 418.789337,131.519669 421.975159,139.163940 
	C424.446686,145.094238 428.339233,150.432312 431.445068,156.392029 
z"/>
<path fill="#89693A" opacity="1.000000" stroke="none" 
	d="
M93.983345,157.018967 
	C89.874222,157.018967 86.252426,157.018967 81.554649,157.018967 
	C86.734161,148.371964 91.424965,140.440811 96.273331,132.607178 
	C96.739197,131.854446 98.208870,131.351196 99.167137,131.414932 
	C99.738884,131.452972 100.586067,132.777191 100.688271,133.600357 
	C101.625084,141.145248 102.425690,148.707062 103.349968,157.018967 
	C100.005821,157.018967 97.238251,157.018967 93.983345,157.018967 
z"/>
<path fill="#040301" opacity="1.000000" stroke="none" 
	d="
M231.495605,343.572449 
	C201.818878,331.998871 183.404755,305.361206 183.159866,273.907928 
	C183.091110,265.077820 183.035675,256.244598 183.203644,247.417130 
	C183.265884,244.146957 182.531219,242.256561 179.274109,240.532181 
	C167.865326,234.492218 163.037613,220.746597 167.565903,208.796249 
	C172.058899,196.939026 184.705276,189.829880 196.823380,192.349106 
	C209.542709,194.993317 218.543930,206.171097 217.900467,218.952103 
	C217.411804,228.658630 212.806717,236.141235 204.223663,240.727005 
	C201.428848,242.220215 200.483932,243.790756 200.607208,246.837402 
	C201.131653,259.799622 200.006393,273.012054 202.134430,285.688141 
	C206.736725,313.102753 233.354385,332.945557 260.316315,330.702576 
	C289.642975,328.262848 311.952118,305.820618 313.154510,277.170471 
	C313.594299,266.691223 313.145508,256.177063 313.414154,245.686783 
	C313.493744,242.579422 311.637573,241.878830 309.590759,240.740555 
	C298.847443,234.766037 293.787506,222.664246 297.018585,210.908508 
	C300.243286,199.175964 311.242096,191.402496 323.779877,191.994827 
	C335.338898,192.540909 345.435608,201.502014 347.721222,213.243469 
	C349.841705,224.136688 344.475830,235.456375 334.151093,240.851562 
	C331.459869,242.257812 330.839417,243.801712 330.783295,246.566864 
	C330.506500,260.206085 331.535583,274.095276 329.311218,287.430450 
	C321.995728,331.287262 276.435883,359.391785 231.495605,343.572449 
M195.303436,218.772568 
	C196.683945,219.642441 198.064438,220.512314 199.591599,221.474594 
	C201.460968,217.128906 200.445709,213.566177 196.806976,210.951263 
	C193.101105,208.288040 189.201263,208.628815 185.981293,211.785400 
	C183.271301,214.442017 182.076218,217.689957 183.634430,220.177475 
	C187.864441,219.517868 191.240585,218.991409 195.303436,218.772568 
M330.766144,217.455032 
	C328.892273,210.779648 324.640930,207.940994 319.334106,209.821732 
	C314.425598,211.561295 312.537781,215.945160 314.723724,220.769928 
	C319.813416,216.746887 324.765228,217.101959 329.690552,221.738434 
	C330.122803,220.323090 330.450897,219.248901 330.766144,217.455032 
z"/>
<path fill="#846538" opacity="1.000000" stroke="none" 
	d="
M194.960083,218.618744 
	C191.240585,218.991409 187.864441,219.517868 183.634430,220.177475 
	C182.076218,217.689957 183.271301,214.442017 185.981293,211.785400 
	C189.201263,208.628815 193.101105,208.288040 196.806976,210.951263 
	C200.445709,213.566177 201.460968,217.128906 199.591599,221.474594 
	C198.064438,220.512314 196.683945,219.642441 194.960083,218.618744 
z"/>
<path fill="#856538" opacity="1.000000" stroke="none" 
	d="
M330.772552,217.814880 
	C330.450897,219.248901 330.122803,220.323090 329.690552,221.738434 
	C324.765228,217.101959 319.813416,216.746887 314.723724,220.769928 
	C312.537781,215.945160 314.425598,211.561295 319.334106,209.821732 
	C324.640930,207.940994 328.892273,210.779648 330.772552,217.814880 
z"/>
</svg>