<svg version="1.1" id="Layer_1" xmlns="http://www.w3.org/2000/svg" xmlns:xlink="http://www.w3.org/1999/xlink" x="0px" y="0px"
	 width="100%" viewBox="0 0 387 345" enable-background="new 0 0 387 345" xml:space="preserve">
<path fill="#010001" opacity="1.000000" stroke="none" 
	d="
M226.000000,346.000000 
	C150.692215,346.000000 75.884438,346.000000 1.076660,346.000000 
	C1.051106,345.858948 1.003156,345.717896 1.003152,345.576843 
	C0.999969,230.782715 1.000000,115.988594 1.000000,1.097235 
	C129.891052,1.097235 258.782227,1.097235 387.836670,1.097235 
	C387.836670,115.999817 387.836670,230.999878 387.836670,346.000000 
	C334.129730,346.000000 280.314880,346.000000 226.000000,346.000000 
M289.131378,191.157211 
	C289.131378,191.157211 289.197784,191.202179 289.625854,191.066147 
	C289.923737,190.940048 290.115997,190.721176 290.688202,190.063095 
	C296.331482,185.698654 301.951904,181.315002 304.736847,173.679794 
	C312.395264,161.821503 314.053223,148.710022 312.930939,134.189606 
	C309.985901,126.394775 307.040863,118.599937 304.085938,110.391449 
	C304.085938,110.391449 303.901398,110.021133 303.980957,109.288422 
	C298.280853,100.041145 291.868958,91.691689 279.551239,90.069504 
	C279.551239,90.069504 279.100464,89.961792 278.915314,89.482307 
	C278.565216,89.636726 278.215088,89.791138 276.978302,89.971046 
	C274.010101,89.969910 271.041931,89.968773 267.904083,89.510307 
	C267.584412,89.661095 267.264771,89.811874 267.003265,89.986542 
	C267.003265,89.986542 266.982086,89.927353 266.141235,89.964279 
	C260.173676,90.368042 254.479568,91.533470 249.179108,95.913353 
	C240.960724,99.402115 234.532349,105.134369 228.716629,111.660507 
	C227.296661,113.342415 225.805389,114.969742 224.468933,116.715561 
	C218.287064,124.790970 212.148209,132.899292 205.346405,141.163559 
	C203.913177,142.154678 202.479950,143.145798 200.447586,144.138489 
	C198.340576,146.202164 197.879852,144.260406 197.196915,142.811981 
	C195.167526,138.507828 188.993958,137.626160 184.426178,140.927490 
	C183.631256,139.002991 182.201859,137.098251 182.141205,135.150879 
	C181.629227,118.715355 181.909637,102.236221 180.827225,85.844467 
	C180.176971,75.997169 177.171539,66.422523 170.117737,58.075706 
	C162.603790,44.242168 141.207092,36.383984 124.373940,41.617825 
	C123.527298,42.056442 122.680656,42.495060 121.392540,42.953979 
	C121.392540,42.953979 120.977531,43.105934 120.293503,42.989258 
	C119.202995,43.659698 118.112495,44.330135 116.521294,44.919537 
	C116.354210,44.945385 116.187126,44.971233 115.266006,44.885330 
	C110.117500,48.871368 104.968994,52.857410 99.918137,56.926033 
	C99.918137,56.926033 99.866791,56.808914 99.250717,57.009289 
	C98.425926,57.951672 97.601135,58.894054 96.853561,59.915752 
	C96.853561,59.915752 96.837700,59.806194 96.275711,60.125393 
	C96.112144,60.737556 95.948578,61.349720 95.915337,61.923279 
	C95.915337,61.923279 95.866684,61.796352 95.259232,62.012413 
	C94.833534,62.679565 94.407837,63.346718 93.581940,64.630547 
	C92.689072,66.821342 92.197464,69.309059 90.833992,71.151611 
	C84.880104,79.197502 84.899696,88.799896 85.293427,97.736343 
	C86.021027,114.250237 94.704613,127.272209 107.174896,137.785721 
	C107.763245,138.281738 109.018417,137.986832 109.989578,137.995819 
	C109.989578,137.995819 109.938667,138.047333 109.983398,138.757477 
	C115.396446,144.783844 121.852890,148.737106 130.441422,149.077911 
	C130.441422,149.077911 130.712250,149.153854 131.109314,149.800308 
	C135.647659,150.878540 140.158035,152.099274 144.731903,152.996429 
	C149.670059,153.965057 154.680405,154.561035 159.632187,155.467453 
	C161.347336,155.781403 163.290314,156.340729 161.482590,158.974152 
	C161.482590,158.974152 161.134781,159.120514 160.334717,158.985062 
	C159.404953,159.127106 158.280518,158.980621 157.575760,159.456146 
	C151.071777,163.844498 144.592865,168.274338 138.223465,172.854553 
	C136.758286,173.908157 135.741409,175.585159 133.836441,177.287598 
	C131.139282,179.655975 128.157196,181.777115 125.826256,184.463303 
	C123.561531,187.073151 118.857475,188.272415 119.832069,193.714401 
	C119.223862,194.146759 118.615662,194.579102 117.850380,194.460114 
	C117.203712,194.950119 116.557045,195.440125 115.975021,195.994522 
	C115.975021,195.994522 115.942001,195.909470 115.342552,196.131683 
	C115.247597,196.753601 115.152641,197.375534 114.529068,198.418289 
	C109.361244,202.818390 106.177269,208.435699 104.250137,215.496155 
	C104.083984,215.857956 103.917831,216.219757 103.752357,216.625458 
	C103.752357,216.625458 103.691895,216.610825 103.067680,216.603119 
	C102.720940,217.067368 102.374207,217.531616 101.683456,218.572998 
	C100.774513,220.330902 99.865578,222.088791 98.283531,224.152145 
	C95.013588,230.806152 91.717896,237.447662 88.482971,244.118637 
	C86.412758,248.387756 87.599915,252.895615 91.494980,255.517426 
	C98.277473,260.082764 105.098206,264.591309 111.970016,269.058228 
	C111.970016,269.058228 111.877518,269.073364 111.960785,269.707245 
	C112.642960,270.133667 113.325134,270.560059 114.596123,271.280090 
	C118.244698,274.932129 121.857460,278.621155 125.566528,282.210693 
	C126.519272,283.132721 127.775612,283.741089 128.892487,284.493561 
	C129.614273,283.280884 130.629425,282.153717 131.011932,280.842102 
	C134.416565,269.167847 137.731003,257.467010 141.008957,245.756348 
	C141.439255,244.219040 141.513901,242.582153 142.194763,240.388718 
	C142.714096,239.570938 143.363342,238.807617 143.732529,237.926895 
	C147.199326,229.656403 150.505768,221.316910 154.081940,213.094513 
	C157.828445,204.480453 161.820663,195.973251 165.945953,186.805008 
	C165.893814,186.148148 165.841675,185.491287 165.885193,184.894104 
	C165.885193,184.894104 165.825104,184.798706 166.439194,184.885727 
	C166.972092,184.283295 167.505005,183.680878 168.696167,182.906296 
	C169.754395,181.608871 170.812622,180.311432 172.091904,178.556549 
	C172.093140,178.387192 172.094391,178.217850 172.698669,177.751297 
	C175.134827,174.467041 177.570969,171.182800 180.677139,168.152618 
	C182.762070,171.803040 184.847015,175.453445 186.949463,179.026642 
	C186.949463,179.026642 186.871201,179.014542 186.849960,179.756134 
	C187.555573,181.204300 188.261200,182.652466 189.007385,184.878021 
	C190.493546,189.685944 192.050446,194.473343 193.452576,199.305649 
	C197.641068,213.740952 202.293320,228.068802 205.776062,242.674316 
	C209.409027,257.909912 211.910034,273.416290 214.866196,288.811920 
	C215.655655,292.923401 217.294357,293.825104 220.852310,291.721863 
	C223.052612,290.421173 225.190247,288.974182 227.192215,287.386292 
	C231.872437,283.674133 236.453903,279.837463 241.701187,276.051239 
	C242.718094,275.778046 243.923386,275.765503 244.721085,275.188995 
	C249.599960,271.663086 254.167160,267.649078 259.285950,264.533295 
	C262.351959,262.667053 262.346252,260.666931 261.547333,257.999817 
	C259.427856,250.924179 257.650360,243.709885 254.974991,236.847763 
	C252.564499,230.665009 249.144424,224.875854 246.137894,218.157364 
	C242.156372,211.707932 238.184174,205.252731 234.186386,198.813400 
	C233.263260,197.326492 230.792679,196.257614 233.232559,194.593124 
	C234.155807,195.027679 235.079041,195.462219 236.514893,196.005798 
	C236.686859,195.974930 236.858810,195.944077 237.456253,196.303558 
	C237.975220,196.511292 238.494202,196.719025 239.421616,197.156113 
	C239.421616,197.156113 239.882172,197.241776 240.316605,197.786453 
	C241.881958,198.178101 243.447311,198.569748 245.625916,199.476868 
	C251.513672,199.984650 257.486786,201.362534 263.269073,200.795303 
	C271.840607,199.954468 280.446655,198.196960 287.673798,192.140305 
	C287.673798,192.140305 287.996796,192.006821 288.555176,191.990524 
	C288.769440,191.697861 288.983704,191.405197 289.131378,191.157211 
z"/>
<path fill="#F497C9" opacity="1.000000" stroke="none" 
	d="
M103.751678,216.581573 
	C103.917831,216.219757 104.083984,215.857956 104.683235,215.413391 
	C109.396515,208.924637 113.676704,202.518646 117.974731,195.837616 
	C117.997528,195.378845 118.002502,195.195160 118.007462,195.011475 
	C118.615662,194.579102 119.223862,194.146759 120.315414,193.411026 
	C126.072479,187.786179 131.346191,182.464722 136.955612,177.201111 
	C144.333481,172.483551 151.419907,167.770966 158.375626,162.872787 
	C159.579239,162.025177 160.229126,160.391251 161.134796,159.120514 
	C161.134781,159.120514 161.482590,158.974152 162.072754,158.996246 
	C168.865723,156.437943 173.837296,156.865005 176.033646,164.373566 
	C176.245041,165.096252 176.984528,165.664459 177.490280,166.319138 
	C175.562088,168.953827 173.725739,171.463013 171.734131,174.157822 
	C171.578903,174.343430 171.390610,174.789215 171.148285,174.918335 
	C170.530212,175.661774 170.154480,176.276108 169.507477,177.079224 
	C168.753357,178.466156 168.270508,179.664276 167.811630,180.900146 
	C167.835617,180.937897 167.856506,180.850937 167.569870,181.025986 
	C166.797195,182.400269 166.311157,183.599487 165.825104,184.798706 
	C165.825104,184.798706 165.885193,184.894104 165.523102,184.774689 
	C164.682297,185.065948 164.203583,185.476624 163.522675,186.009979 
	C163.060745,186.368698 162.970764,186.657654 162.842896,187.277924 
	C159.664795,192.892349 156.187607,198.014496 153.827438,203.607986 
	C148.619064,215.951508 143.973511,228.532501 138.887756,241.317001 
	C135.192184,254.062027 131.707138,266.506653 127.919609,280.031494 
	C124.242172,276.430359 121.350655,273.322815 118.150902,270.574127 
	C116.374413,269.048035 114.083382,268.120972 111.975647,266.585632 
	C106.622276,262.077759 101.089012,258.162964 96.075890,253.668060 
	C90.881264,249.010422 90.511696,245.148132 93.581802,238.952896 
	C95.121071,235.846771 96.640732,232.730927 98.478317,229.427887 
	C100.619301,225.557480 102.451233,221.878647 104.265114,218.142776 
	C104.247063,218.085739 104.130440,218.058975 104.420029,217.800842 
	C104.390305,217.222351 104.070992,216.901962 103.751678,216.581573 
z"/>
<path fill="#F597C9" opacity="1.000000" stroke="none" 
	d="
M130.712250,149.153854 
	C130.712250,149.153854 130.441422,149.077911 130.185165,148.677094 
	C123.265495,144.866638 116.602081,141.456985 109.938667,138.047333 
	C109.938667,138.047333 109.989578,137.995819 109.994438,137.672760 
	C108.651199,135.957932 107.284462,134.583664 105.957924,133.171616 
	C94.610542,121.092812 87.940178,107.144112 88.657555,90.190674 
	C89.179787,77.848953 94.444000,67.565651 102.519882,58.162796 
	C107.193771,54.630127 111.577194,51.272682 116.336014,47.903229 
	C134.690887,40.627586 156.286179,42.990265 158.589310,52.774277 
	C157.867950,52.655441 157.262070,52.568134 156.661102,52.454792 
	C143.284073,49.931923 129.949448,56.708557 124.449791,69.041634 
	C119.612648,79.889046 121.448433,90.705864 125.933990,101.000854 
	C135.244766,122.370468 153.467926,134.532013 173.113525,145.375107 
	C173.473328,145.785812 173.747894,145.906006 174.146973,146.338821 
	C173.675232,149.458527 173.124268,152.162109 172.577133,154.846939 
	C160.020233,152.777771 147.930511,150.740051 135.818741,148.843231 
	C134.173157,148.585510 132.417130,149.032928 130.712250,149.153854 
z"/>
<path fill="#B54A84" opacity="1.000000" stroke="none" 
	d="
M201.046722,144.136917 
	C202.479950,143.145798 203.913177,142.154678 206.049835,141.115372 
	C208.771851,139.818802 211.344666,139.000992 212.709381,137.244553 
	C217.590546,130.962250 222.146164,124.419006 226.630981,117.842224 
	C227.788651,116.144531 228.237335,113.963379 229.011703,112.004303 
	C234.532349,105.134369 240.960724,99.402115 249.770203,96.088486 
	C254.900726,94.849998 259.440155,93.436386 264.304077,92.269470 
	C268.368195,92.986412 272.355988,92.785439 275.798737,94.058441 
	C284.549103,97.294014 290.259308,112.788780 286.683868,123.306152 
	C285.896820,124.495308 285.411041,125.513130 284.611145,126.346252 
	C283.205688,125.723457 282.114288,125.285362 280.888123,124.492455 
	C280.383911,123.821434 280.029694,123.249588 279.642700,123.226425 
	C270.138336,122.657646 262.075562,126.517921 254.431671,131.580551 
	C254.098465,131.801224 254.067596,132.478394 253.518829,132.947266 
	C251.495087,133.606476 249.690338,134.017105 248.231079,134.961594 
	C243.673050,137.911728 239.213013,141.017410 234.775497,144.148575 
	C228.812469,148.356155 222.905930,152.643814 216.677734,156.963623 
	C215.974808,157.054871 215.569290,157.079575 214.927338,156.965332 
	C211.492996,157.227890 208.574539,160.074310 204.875824,157.645660 
	C203.994247,156.930481 203.357559,156.421753 202.643829,156.068878 
	C196.691269,153.125748 196.531219,151.644684 201.422928,147.053619 
	C201.841400,146.660873 201.197250,145.135910 201.046722,144.136917 
M205.512421,143.457794 
	C205.512421,143.457794 205.532501,143.505920 205.512421,143.457794 
z"/>
<path fill="#A4376F" opacity="1.000000" stroke="none" 
	d="
M172.982971,145.188065 
	C153.467926,134.532013 135.244766,122.370468 125.933990,101.000854 
	C121.448433,90.705864 119.612648,79.889046 124.449791,69.041634 
	C129.949448,56.708557 143.284073,49.931923 156.661102,52.454792 
	C157.262070,52.568134 157.867950,52.655441 158.589310,52.774277 
	C156.286179,42.990265 134.690887,40.627586 116.243591,47.664917 
	C115.857201,46.624775 115.938622,45.810928 116.020042,44.997082 
	C116.187126,44.971233 116.354210,44.945385 116.989227,45.091431 
	C118.630623,44.544193 119.804077,43.825062 120.977531,43.105934 
	C120.977531,43.105934 121.392540,42.953979 121.934723,42.951611 
	C123.308769,42.471615 124.140625,41.993992 124.972481,41.516365 
	C141.207092,36.383984 162.603790,44.242168 169.960724,58.670784 
	C169.523056,59.517406 169.242401,59.768951 168.634232,59.907936 
	C166.745102,58.715355 165.320267,57.178299 163.590378,56.660587 
	C160.878448,55.848969 157.905869,55.948456 155.139786,55.270142 
	C145.909409,53.006618 138.292542,55.721722 131.837860,61.670376 
	C133.829453,64.073853 135.450119,66.029709 136.740143,67.947830 
	C135.578796,67.617165 134.748093,67.324242 133.577591,67.059792 
	C131.964828,66.572548 130.691864,66.056831 129.651443,65.635323 
	C123.889587,72.610725 124.561806,80.268265 125.579643,88.046791 
	C127.758499,104.698227 137.911606,116.487350 149.832443,126.913162 
	C152.118286,128.912323 154.591385,133.473190 159.637131,131.068787 
	C163.062866,134.500397 166.182068,137.807953 169.286179,141.129608 
	C170.535507,142.466492 171.751694,143.834320 172.982971,145.188065 
z"/>
<path fill="#A53A72" opacity="1.000000" stroke="none" 
	d="
M241.075348,276.051239 
	C236.453903,279.837463 231.872437,283.674133 227.192215,287.386292 
	C225.190247,288.974182 223.052612,290.421173 220.852310,291.721863 
	C217.294357,293.825104 215.655655,292.923401 214.866196,288.811920 
	C211.910034,273.416290 209.409027,257.909912 205.776062,242.674316 
	C202.293320,228.068802 197.641068,213.740952 193.452576,199.305649 
	C192.050446,194.473343 190.493546,189.685944 188.984467,184.125824 
	C188.264771,181.920609 187.567978,180.467575 186.871201,179.014542 
	C186.871201,179.014542 186.949463,179.026642 186.961868,178.596893 
	C187.057449,176.923447 187.140610,175.679749 187.462540,174.724548 
	C191.387207,184.017807 195.582413,192.852280 198.661591,202.059952 
	C207.212311,227.629227 212.488327,253.981125 216.330872,280.634796 
	C217.382065,287.926331 219.620911,288.985229 225.764175,284.914825 
	C230.587402,281.719025 235.251785,278.283478 240.131424,275.171509 
	C240.542526,275.609467 240.808945,275.830353 241.075348,276.051239 
z"/>
<path fill="#A93B74" opacity="1.000000" stroke="none" 
	d="
M237.030746,195.913208 
	C236.858810,195.944077 236.686859,195.974930 236.205200,195.650421 
	C234.929565,194.866379 233.963623,194.437729 232.997665,194.009079 
	C230.792679,196.257614 233.263260,197.326492 234.186386,198.813400 
	C238.184174,205.252731 242.156372,211.707932 245.890381,218.785812 
	C245.357941,220.076004 245.073029,220.737747 244.511124,221.193878 
	C243.715439,220.146454 243.178391,219.315353 242.680740,218.461304 
	C233.435303,202.594421 223.175705,187.578659 208.089310,176.511963 
	C203.542084,173.176361 199.170563,169.601212 194.970551,165.975769 
	C195.488205,165.521942 195.753876,165.228134 196.352615,165.032059 
	C199.430084,166.987061 202.253967,168.737961 204.905350,170.719666 
	C217.762970,180.329773 229.872986,191.112640 245.378113,196.495087 
	C245.253418,196.665665 244.998169,197.002441 244.645889,196.990479 
	C242.823135,197.066284 241.352646,197.154037 239.882172,197.241791 
	C239.882172,197.241776 239.421616,197.156113 239.164795,196.784622 
	C238.282227,196.246490 237.656494,196.079849 237.030746,195.913208 
z"/>
<path fill="#A43A71" opacity="1.000000" stroke="none" 
	d="
M102.229416,58.338020 
	C94.444000,67.565651 89.179787,77.848953 88.657555,90.190674 
	C87.940178,107.144112 94.610542,121.092812 105.957924,133.171616 
	C107.284462,134.583664 108.651199,135.957932 109.981171,137.704987 
	C109.018417,137.986832 107.763245,138.281738 107.174896,137.785721 
	C94.704613,127.272209 86.021027,114.250237 85.293427,97.736343 
	C84.899696,88.799896 84.880104,79.197502 90.833992,71.151611 
	C92.197464,69.309059 92.689072,66.821342 94.099182,64.245041 
	C95.033180,63.171806 95.449928,62.484077 95.866684,61.796352 
	C95.866684,61.796352 95.915337,61.923279 96.110031,61.753807 
	C96.482384,60.991623 96.660042,60.398907 96.837700,59.806194 
	C96.837700,59.806194 96.853561,59.915752 97.174774,59.871872 
	C98.286255,58.821632 99.076523,57.815273 99.866791,56.808914 
	C99.866791,56.808914 99.918137,56.926033 100.218506,56.989254 
	C101.089058,57.480991 101.659241,57.909504 102.229416,58.338020 
z"/>
<path fill="#A13A6F" opacity="1.000000" stroke="none" 
	d="
M244.788116,221.399490 
	C245.073029,220.737747 245.357941,220.076004 245.906235,219.163696 
	C249.144424,224.875854 252.564499,230.665009 254.974991,236.847763 
	C257.650360,243.709885 259.427856,250.924179 261.547333,257.999817 
	C262.346252,260.666931 262.351959,262.667053 259.285950,264.533295 
	C254.167160,267.649078 249.599960,271.663086 244.721085,275.188995 
	C243.923386,275.765503 242.718094,275.778046 241.388275,276.051239 
	C240.808945,275.830353 240.542526,275.609467 240.346588,274.921265 
	C244.297333,271.619720 248.246399,268.874176 252.042343,265.931183 
	C258.324707,261.060394 259.248383,258.987823 256.567657,251.427383 
	C252.976517,241.299179 248.744797,231.398087 244.788116,221.399490 
z"/>
<path fill="#A0336B" opacity="1.000000" stroke="none" 
	d="
M168.961761,60.020493 
	C169.242401,59.768951 169.523056,59.517406 169.958130,59.027557 
	C177.171539,66.422523 180.176971,75.997169 180.827225,85.844467 
	C181.909637,102.236221 181.629227,118.715355 182.141205,135.150879 
	C182.201859,137.098251 183.631256,139.002991 185.080322,141.129944 
	C186.226303,141.584137 186.718140,141.835861 187.087555,142.395294 
	C186.327698,142.924759 185.386337,143.533081 185.100159,143.308105 
	C182.425507,141.205322 180.236603,142.314026 178.094070,143.713928 
	C178.445206,127.970543 179.008453,112.657486 179.075714,97.342247 
	C179.134125,84.047050 175.857422,71.505882 168.961761,60.020493 
z"/>
<path fill="#A53770" opacity="1.000000" stroke="none" 
	d="
M130.910782,149.477081 
	C132.417130,149.032928 134.173157,148.585510 135.818741,148.843231 
	C147.930511,150.740051 160.020233,152.777771 172.577133,154.846939 
	C173.124268,152.162109 173.675232,149.458527 174.381378,146.124695 
	C175.357407,145.329041 176.178253,145.163605 177.206573,144.994171 
	C177.414032,144.990158 177.829025,144.987396 177.778336,145.351776 
	C174.185150,152.650238 173.594910,159.234314 180.010712,165.351410 
	C180.008331,166.443054 180.007721,167.170792 180.007111,167.898544 
	C177.570969,171.182800 175.134827,174.467041 172.105499,177.759674 
	C170.934464,177.475510 170.356598,177.182983 169.778748,176.890442 
	C170.154480,176.276108 170.530212,175.661774 171.544769,174.983398 
	C172.447647,174.957764 172.711685,174.996155 173.027771,175.118256 
	C173.079834,175.201981 173.329453,175.203323 173.329453,175.203323 
	C173.329453,175.203323 173.032135,174.977036 172.875488,174.773651 
	C172.442352,174.370911 172.165878,174.171555 171.889374,173.972214 
	C173.725739,171.463013 175.562088,168.953827 177.490280,166.319138 
	C176.984528,165.664459 176.245041,165.096252 176.033646,164.373566 
	C173.837296,156.865005 168.865723,156.437943 162.256134,158.951859 
	C163.290314,156.340729 161.347336,155.781403 159.632187,155.467453 
	C154.680405,154.561035 149.670059,153.965057 144.731903,152.996429 
	C140.158035,152.099274 135.647659,150.878540 130.910782,149.477081 
z"/>
<path fill="#A73570" opacity="1.000000" stroke="none" 
	d="
M139.098312,241.016602 
	C143.973511,228.532501 148.619064,215.951508 153.827438,203.607986 
	C156.187607,198.014496 159.664795,192.892349 163.161469,187.277649 
	C164.112183,186.991058 164.536667,186.983185 165.138550,187.100861 
	C165.315964,187.226410 165.705475,187.419342 165.705475,187.419342 
	C161.820663,195.973251 157.828445,204.480453 154.081940,213.094513 
	C150.505768,221.316910 147.199326,229.656403 143.732529,237.926895 
	C143.363342,238.807617 142.714096,239.570938 141.641998,240.686676 
	C140.425598,240.995300 139.761948,241.005951 139.098312,241.016602 
z"/>
<path fill="#A0336B" opacity="1.000000" stroke="none" 
	d="
M138.887756,241.316986 
	C139.761948,241.005951 140.425598,240.995300 141.421265,240.988022 
	C141.513901,242.582153 141.439255,244.219040 141.008957,245.756348 
	C137.731003,257.467010 134.416565,269.167847 131.011932,280.842102 
	C130.629425,282.153717 129.614273,283.280884 128.892487,284.493561 
	C127.775612,283.741089 126.519272,283.132721 125.566528,282.210693 
	C121.857460,278.621155 118.244698,274.932129 114.228722,270.822449 
	C113.200050,269.934326 112.538788,269.503845 111.877518,269.073364 
	C111.877518,269.073364 111.970016,269.058228 111.958702,268.724060 
	C111.973015,267.901215 111.998642,267.412537 112.024261,266.923889 
	C114.083382,268.120972 116.374413,269.048035 118.150902,270.574127 
	C121.350655,273.322815 124.242172,276.430359 127.919609,280.031494 
	C131.707138,266.506653 135.192184,254.062027 138.887756,241.316986 
z"/>
<path fill="#A33B71" opacity="1.000000" stroke="none" 
	d="
M111.975647,266.585632 
	C111.998642,267.412537 111.973015,267.901215 111.925148,268.756775 
	C105.098206,264.591309 98.277473,260.082764 91.494980,255.517426 
	C87.599915,252.895615 86.412758,248.387756 88.482971,244.118637 
	C91.717896,237.447662 95.013588,230.806152 98.568825,224.410217 
	C98.625824,226.318665 98.397537,227.969070 98.169250,229.619461 
	C96.640732,232.730927 95.121071,235.846771 93.581802,238.952896 
	C90.511696,245.148132 90.881264,249.010422 96.075890,253.668060 
	C101.089012,258.162964 106.622276,262.077759 111.975647,266.585632 
z"/>
<path fill="#A53770" opacity="1.000000" stroke="none" 
	d="
M187.209991,142.087601 
	C186.718140,141.835861 186.226303,141.584137 185.485779,141.215164 
	C188.993958,137.626160 195.167526,138.507828 197.196915,142.811981 
	C197.879852,144.260406 198.340576,146.202164 200.747162,144.137695 
	C201.197250,145.135910 201.841400,146.660873 201.422928,147.053619 
	C196.531219,151.644684 196.691269,153.125748 202.643829,156.068878 
	C203.357559,156.421753 203.994247,156.930481 204.645050,157.838013 
	C204.404800,158.639038 204.186111,158.969009 203.607925,159.214767 
	C201.166748,157.980179 199.085098,156.829788 196.864136,155.602417 
	C195.399536,158.027435 194.161469,160.077377 192.860168,162.231995 
	C194.070206,163.266998 195.044876,164.100662 196.019531,164.934326 
	C195.753876,165.228134 195.488205,165.521942 194.616898,165.874435 
	C191.011703,166.306320 188.012177,166.679520 184.699326,167.033554 
	C183.592209,166.496063 182.798386,165.977753 182.380264,165.353577 
	C189.948685,163.617569 193.180313,158.121872 195.303497,151.870285 
	C197.567245,145.204849 194.226105,141.357941 187.209991,142.087601 
z"/>
<path fill="#A2386F" opacity="1.000000" stroke="none" 
	d="
M312.816406,134.993958 
	C314.053223,148.710022 312.395264,161.821503 304.007660,173.839081 
	C302.695099,173.950760 302.111725,173.903137 301.604797,173.487747 
	C310.593262,157.562225 312.423126,141.177948 307.715576,124.134346 
	C309.616669,127.846748 311.216553,131.420349 312.816406,134.993958 
z"/>
<path fill="#AC3273" opacity="1.000000" stroke="none" 
	d="
M286.985168,123.134827 
	C290.259308,112.788780 284.549103,97.294014 275.798737,94.058441 
	C272.355988,92.785439 268.368195,92.986412 264.522430,92.047714 
	C265.271545,91.028625 266.126801,90.477989 266.982086,89.927353 
	C266.982086,89.927353 267.003265,89.986542 267.256409,89.984375 
	C267.697632,89.977348 267.885681,89.972496 268.073730,89.967636 
	C271.041931,89.968773 274.010101,89.969910 277.730560,89.970993 
	C278.688721,89.967896 278.894592,89.964844 279.100464,89.961792 
	C279.100464,89.961792 279.551239,90.069504 279.780151,90.493301 
	C280.699493,91.952415 281.389893,92.987732 282.084015,94.374008 
	C291.373474,106.024200 292.075592,118.643829 287.618469,131.685883 
	C287.269348,128.609299 287.127258,125.872063 286.985168,123.134827 
z"/>
<path fill="#A13A6F" opacity="1.000000" stroke="none" 
	d="
M287.325470,192.168747 
	C280.446655,198.196960 271.840607,199.954468 263.269073,200.795303 
	C257.486786,201.362534 251.513672,199.984650 245.316223,198.892609 
	C245.003738,197.873062 245.000946,197.437744 244.998169,197.002441 
	C244.998169,197.002441 245.253418,196.665665 245.781006,196.585632 
	C259.967773,199.879715 272.680420,197.252884 284.980621,190.759308 
	C285.926971,191.438797 286.626221,191.803772 287.325470,192.168747 
z"/>
<path fill="#9B386C" opacity="1.000000" stroke="none" 
	d="
M160.734756,159.052795 
	C160.229126,160.391251 159.579239,162.025177 158.375626,162.872787 
	C151.419907,167.770966 144.333481,172.483551 136.604034,177.147552 
	C135.450562,177.015854 134.984390,176.995560 134.518219,176.975266 
	C135.741409,175.585159 136.758286,173.908157 138.223465,172.854553 
	C144.592865,168.274338 151.071777,163.844498 157.575760,159.456146 
	C158.280518,158.980621 159.404953,159.127106 160.734756,159.052795 
z"/>
<path fill="#9B386C" opacity="1.000000" stroke="none" 
	d="
M228.864166,111.832405 
	C228.237335,113.963379 227.788651,116.144531 226.630981,117.842224 
	C222.146164,124.419006 217.590546,130.962250 212.709381,137.244553 
	C211.344666,139.000992 208.771851,139.818802 206.373596,141.031509 
	C212.148209,132.899292 218.287064,124.790970 224.468933,116.715561 
	C225.805389,114.969742 227.296661,113.342415 228.864166,111.832405 
z"/>
<path fill="#A43A71" opacity="1.000000" stroke="none" 
	d="
M287.499634,192.154526 
	C286.626221,191.803772 285.926971,191.438797 285.178528,190.511719 
	C290.595703,184.584930 296.062012,179.220230 301.528351,173.855530 
	C302.111725,173.903137 302.695099,173.950760 303.716522,174.027222 
	C301.951904,181.315002 296.331482,185.698654 290.300812,190.079391 
	C289.674866,190.464523 289.436340,190.833344 289.197784,191.202179 
	C289.197784,191.202179 289.131378,191.157211 288.928223,191.232391 
	C288.482300,191.540665 288.239532,191.773743 287.996796,192.006821 
	C287.996796,192.006821 287.673798,192.140305 287.499634,192.154526 
z"/>
<path fill="#A13A6F" opacity="1.000000" stroke="none" 
	d="
M282.080322,94.023048 
	C281.389893,92.987732 280.699493,91.952415 279.992188,90.586792 
	C291.868958,91.691689 298.280853,100.041145 303.700195,109.772980 
	C302.943024,110.505814 302.466583,110.754089 301.786377,110.729004 
	C300.231049,108.205063 299.281006,105.532883 297.448273,103.787666 
	C293.009552,99.560913 289.412445,93.766800 282.080322,94.023048 
z"/>
<path fill="#9B386C" opacity="1.000000" stroke="none" 
	d="
M117.956894,196.112671 
	C113.676704,202.518646 109.396515,208.924637 104.760612,215.124847 
	C106.177269,208.435699 109.361244,202.818390 115.077576,198.054138 
	C115.731384,197.096481 115.836693,196.502975 115.942001,195.909470 
	C115.942001,195.909470 115.975021,195.994522 116.265343,196.109573 
	C117.022743,196.187302 117.489815,196.149979 117.956894,196.112671 
z"/>
<path fill="#9B386C" opacity="1.000000" stroke="none" 
	d="
M109.961029,138.402405 
	C116.602081,141.456985 123.265495,144.866638 130.064728,148.604492 
	C121.852890,148.737106 115.396446,144.783844 109.961029,138.402405 
z"/>
<path fill="#A44176" opacity="1.000000" stroke="none" 
	d="
M102.519882,58.162796 
	C101.659241,57.909504 101.089058,57.480991 100.169693,56.947960 
	C104.968994,52.857410 110.117500,48.871368 115.643021,44.941208 
	C115.938622,45.810928 115.857201,46.624775 115.868195,47.676929 
	C111.577194,51.272682 107.193771,54.630127 102.519882,58.162796 
z"/>
<path fill="#94265C" opacity="1.000000" stroke="none" 
	d="
M134.177338,177.131439 
	C134.984390,176.995560 135.450562,177.015854 136.268311,177.089706 
	C131.346191,182.464722 126.072479,187.786179 120.447716,193.159607 
	C118.857475,188.272415 123.561531,187.073151 125.826256,184.463303 
	C128.157196,181.777115 131.139282,179.655975 134.177338,177.131439 
z"/>
<path fill="#A13A6F" opacity="1.000000" stroke="none" 
	d="
M312.873657,134.591782 
	C311.216553,131.420349 309.616669,127.846748 307.581512,123.844025 
	C307.055725,122.787407 306.965210,122.159912 306.890869,121.140762 
	C306.254028,119.492722 305.601044,118.236336 304.767426,116.738434 
	C304.240448,115.585274 303.894104,114.673622 303.660339,113.273407 
	C303.880554,112.124931 303.988190,111.465012 304.095825,110.805099 
	C307.040863,118.599937 309.985901,126.394775 312.873657,134.591782 
z"/>
<path fill="#A0336B" opacity="1.000000" stroke="none" 
	d="
M266.561646,89.945816 
	C266.126801,90.477989 265.271545,91.028625 264.197937,91.801025 
	C259.440155,93.436386 254.900726,94.849998 250.129456,96.030029 
	C254.479568,91.533470 260.173676,90.368042 266.561646,89.945816 
z"/>
<path fill="#A44176" opacity="1.000000" stroke="none" 
	d="
M182.004578,165.459427 
	C182.798386,165.977753 183.592209,166.496063 184.592865,167.387573 
	C185.229279,169.158920 185.658829,170.557068 185.894775,172.155441 
	C186.022003,172.866150 186.342850,173.376617 186.806854,173.915787 
	C187.114120,174.067841 187.205383,174.231705 187.223785,174.436050 
	C187.140610,175.679749 187.057449,176.923447 186.953110,178.635498 
	C184.847015,175.453445 182.762070,171.803040 180.342133,168.025574 
	C180.007721,167.170792 180.008331,166.443054 180.353729,165.377777 
	C181.133865,165.179993 181.569229,165.319702 182.004578,165.459427 
z"/>
<path fill="#A2386F" opacity="1.000000" stroke="none" 
	d="
M98.478302,229.427887 
	C98.397537,227.969070 98.625824,226.318665 98.905380,224.257477 
	C99.865578,222.088791 100.774513,220.330902 102.231705,218.306793 
	C103.281021,218.093674 103.782089,218.146744 104.283157,218.199814 
	C102.451233,221.878647 100.619301,225.557480 98.478302,229.427887 
z"/>
<path fill="#A53770" opacity="1.000000" stroke="none" 
	d="
M171.870850,179.014008 
	C170.812622,180.311432 169.754395,181.608871 168.346802,182.620972 
	C167.950455,181.840729 167.903473,181.345840 167.856506,180.850937 
	C167.856506,180.850937 167.835617,180.937897 168.144928,180.878235 
	C169.593124,180.217041 170.731979,179.615524 171.870850,179.014008 
z"/>
<path fill="#A73570" opacity="1.000000" stroke="none" 
	d="
M171.981384,178.785278 
	C170.731979,179.615524 169.593124,180.217041 168.120941,180.840485 
	C168.270508,179.664276 168.753357,178.466156 169.507477,177.079224 
	C170.356598,177.182983 170.934464,177.475510 171.803970,177.908264 
	C172.094391,178.217850 172.093140,178.387192 171.981384,178.785278 
z"/>
<path fill="#A44176" opacity="1.000000" stroke="none" 
	d="
M244.645889,196.990479 
	C245.000946,197.437744 245.003738,197.873062 245.009583,198.634872 
	C243.447311,198.569748 241.881958,198.178101 240.099396,197.514130 
	C241.352646,197.154037 242.823135,197.066284 244.645889,196.990479 
z"/>
<path fill="#A44176" opacity="1.000000" stroke="none" 
	d="
M120.635513,43.047596 
	C119.804077,43.825062 118.630623,44.544193 117.239578,45.131947 
	C118.112495,44.330135 119.202995,43.659698 120.635513,43.047596 
z"/>
<path fill="#A44176" opacity="1.000000" stroke="none" 
	d="
M233.115112,194.301102 
	C233.963623,194.437729 234.929565,194.866379 235.948914,195.595917 
	C235.079041,195.462219 234.155807,195.027679 233.115112,194.301102 
z"/>
<path fill="#A44176" opacity="1.000000" stroke="none" 
	d="
M186.860580,179.385345 
	C187.567978,180.467575 188.264771,181.920609 188.964172,183.737137 
	C188.261200,182.652466 187.555573,181.204300 186.860580,179.385345 
z"/>
<path fill="#A44176" opacity="1.000000" stroke="none" 
	d="
M99.558754,56.909103 
	C99.076523,57.815273 98.286255,58.821632 97.136169,59.832214 
	C97.601135,58.894054 98.425926,57.951672 99.558754,56.909103 
z"/>
<path fill="#A73570" opacity="1.000000" stroke="none" 
	d="
M167.569855,181.025986 
	C167.903473,181.345840 167.950455,181.840729 168.017670,182.707047 
	C167.505005,183.680878 166.972092,184.283295 166.132156,184.842224 
	C166.311157,183.599487 166.797195,182.400269 167.569855,181.025986 
z"/>
<path fill="#A44176" opacity="1.000000" stroke="none" 
	d="
M124.673210,41.567097 
	C124.140625,41.993992 123.308769,42.471615 122.155464,42.941460 
	C122.680656,42.495060 123.527298,42.056442 124.673210,41.567097 
z"/>
<path fill="#A2386F" opacity="1.000000" stroke="none" 
	d="
M304.090881,110.598267 
	C303.988190,111.465012 303.880554,112.124931 303.448090,113.026855 
	C302.745575,112.513367 302.367859,111.757866 301.990173,111.002365 
	C302.466583,110.754089 302.943024,110.505814 303.660400,110.139336 
	C303.901398,110.021133 304.085938,110.391449 304.090881,110.598267 
z"/>
<path fill="#A44176" opacity="1.000000" stroke="none" 
	d="
M95.562958,61.904381 
	C95.449928,62.484077 95.033180,63.171806 94.299286,63.936699 
	C94.407837,63.346718 94.833534,62.679565 95.562958,61.904381 
z"/>
<path fill="#A44176" opacity="1.000000" stroke="none" 
	d="
M237.243500,196.108368 
	C237.656494,196.079849 238.282227,196.246490 238.960571,196.669952 
	C238.494202,196.719025 237.975220,196.511292 237.243500,196.108368 
z"/>
<path fill="#A33B71" opacity="1.000000" stroke="none" 
	d="
M111.919151,269.390320 
	C112.538788,269.503845 113.200050,269.934326 113.934319,270.675659 
	C113.325134,270.560059 112.642960,270.133667 111.919151,269.390320 
z"/>
<path fill="#A73570" opacity="1.000000" stroke="none" 
	d="
M163.724854,185.887299 
	C164.203583,185.476624 164.682297,185.065948 165.475281,184.744843 
	C165.841675,185.491287 165.893814,186.148148 165.825714,187.112183 
	C165.705475,187.419342 165.315964,187.226410 164.973312,186.877808 
	C164.328735,186.315231 164.026794,186.101257 163.724854,185.887299 
z"/>
<path fill="#F594C8" opacity="1.000000" stroke="none" 
	d="
M117.974731,195.837601 
	C117.489815,196.149979 117.022743,196.187302 116.233025,196.077377 
	C116.557045,195.440125 117.203712,194.950119 117.928925,194.735794 
	C118.002502,195.195160 117.997528,195.378845 117.974731,195.837601 
z"/>
<path fill="#F594C8" opacity="1.000000" stroke="none" 
	d="
M115.642273,196.020569 
	C115.836693,196.502975 115.731384,197.096481 115.341873,197.843719 
	C115.152641,197.375534 115.247597,196.753601 115.642273,196.020569 
z"/>
<path fill="#A33B71" opacity="1.000000" stroke="none" 
	d="
M104.265106,218.142776 
	C103.782089,218.146744 103.281021,218.093674 102.403709,218.018234 
	C102.374207,217.531616 102.720940,217.067368 103.543312,216.953644 
	C104.056107,217.555756 104.093277,217.807373 104.130440,218.058975 
	C104.130440,218.058975 104.247063,218.085739 104.265106,218.142776 
z"/>
<path fill="#A44176" opacity="1.000000" stroke="none" 
	d="
M96.556702,59.965794 
	C96.660042,60.398907 96.482384,60.991623 96.044868,61.773109 
	C95.948578,61.349720 96.112144,60.737556 96.556702,59.965794 
z"/>
<path fill="#A13A6F" opacity="1.000000" stroke="none" 
	d="
M289.411804,191.134155 
	C289.436340,190.833344 289.674866,190.464523 290.058044,190.252609 
	C290.115997,190.721176 289.923737,190.940048 289.411804,191.134155 
z"/>
<path fill="#A13A6F" opacity="1.000000" stroke="none" 
	d="
M279.007874,89.722046 
	C278.894592,89.964844 278.688721,89.967896 278.173889,89.958252 
	C278.215088,89.791138 278.565216,89.636726 279.007874,89.722046 
z"/>
<path fill="#A13A6F" opacity="1.000000" stroke="none" 
	d="
M288.276001,191.998672 
	C288.239532,191.773743 288.482300,191.540665 288.961487,191.210052 
	C288.983704,191.405197 288.769440,191.697861 288.276001,191.998672 
z"/>
<path fill="#A2386F" opacity="1.000000" stroke="none" 
	d="
M104.420029,217.800842 
	C104.093277,217.807373 104.056107,217.555756 103.855423,216.957489 
	C103.691895,216.610825 103.752357,216.625458 103.752014,216.603516 
	C104.070992,216.901962 104.390305,217.222351 104.420029,217.800842 
z"/>
<path fill="#A0336B" opacity="1.000000" stroke="none" 
	d="
M267.988892,89.738968 
	C267.885681,89.972496 267.697632,89.977348 267.227356,89.972427 
	C267.264771,89.811874 267.584412,89.661095 267.988892,89.738968 
z"/>
<path fill="#A93B74" opacity="1.000000" stroke="none" 
	d="
M163.522675,186.009964 
	C164.026794,186.101257 164.328735,186.315231 164.795898,186.752258 
	C164.536667,186.983185 164.112183,186.991058 163.369110,186.999207 
	C162.970764,186.657654 163.060745,186.368698 163.522675,186.009964 
z"/>
<path fill="#A73570" opacity="1.000000" stroke="none" 
	d="
M172.975708,175.034531 
	C172.711685,174.996155 172.447647,174.957764 171.787109,174.854294 
	C171.390610,174.789215 171.578903,174.343430 171.734146,174.157822 
	C172.165878,174.171555 172.442352,174.370911 172.859894,174.786545 
	C173.000961,175.002838 172.975708,175.034531 172.975708,175.034531 
z"/>
<path fill="#B54A84" opacity="1.000000" stroke="none" 
	d="
M176.999100,144.998169 
	C176.178253,145.163605 175.357407,145.329041 174.302155,145.708588 
	C173.747894,145.906006 173.473328,145.785812 173.113525,145.375107 
	C171.751694,143.834320 170.535507,142.466492 169.286179,141.129608 
	C166.182068,137.807953 163.062866,134.500397 159.571350,130.708588 
	C159.040939,129.514282 158.888931,128.798569 159.026443,127.820786 
	C158.343231,121.309235 157.965851,114.890457 156.248825,108.852654 
	C154.042969,101.096008 151.217514,93.432159 147.804962,86.127319 
	C144.844986,79.791313 140.694885,74.011299 137.070786,67.985558 
	C135.450119,66.029709 133.829453,64.073853 131.837860,61.670376 
	C138.292542,55.721722 145.909409,53.006618 155.139786,55.270142 
	C157.905869,55.948456 160.878448,55.848969 163.590378,56.660587 
	C165.320267,57.178299 166.745102,58.715355 168.634232,59.907932 
	C175.857422,71.505882 179.134125,84.047050 179.075714,97.342247 
	C179.008453,112.657486 178.445206,127.970543 178.065063,143.679840 
	C178.032776,144.075134 178.091675,144.008881 177.868622,144.124985 
	C177.430069,144.493454 177.214584,144.745819 176.999100,144.998169 
z"/>
<path fill="#070204" opacity="1.000000" stroke="none" 
	d="
M215.163757,157.104263 
	C215.569290,157.079575 215.974808,157.054871 217.057678,157.043549 
	C219.948975,156.110138 222.341492,155.444000 224.346436,154.168564 
	C233.643112,148.254608 242.849106,142.197021 252.039352,136.117966 
	C253.231903,135.329117 254.144516,134.117081 255.569244,133.107788 
	C264.308746,130.358765 272.665802,127.603012 281.022888,124.847267 
	C282.114288,125.285362 283.205688,125.723457 284.801331,126.618126 
	C284.857208,138.091690 278.129120,145.800385 270.918915,152.885498 
	C262.746979,160.915665 252.270508,164.586838 240.705261,166.155670 
	C239.887665,166.138870 239.419296,166.178085 238.638092,166.144958 
	C237.901321,166.110611 237.477386,166.148605 236.719116,166.113953 
	C235.930710,165.998108 235.476639,165.954926 234.882812,165.647369 
	C234.171432,165.317505 233.599808,165.252029 232.606827,165.089264 
	C227.051331,163.745773 221.865082,162.666626 216.832047,161.096329 
	C215.946930,160.820175 215.703522,158.487305 215.163757,157.104263 
z"/>
<path fill="#A23E72" opacity="1.000000" stroke="none" 
	d="
M241.054489,166.211700 
	C252.270508,164.586838 262.746979,160.915665 270.918915,152.885498 
	C278.129120,145.800385 284.857208,138.091690 285.115417,126.802826 
	C285.411041,125.513130 285.896820,124.495308 286.683899,123.306152 
	C287.127258,125.872063 287.269348,128.609299 287.589905,132.050659 
	C281.534546,152.214142 263.952911,166.668121 244.777344,167.697968 
	C243.375168,167.068436 242.214828,166.640060 241.054489,166.211700 
z"/>
<path fill="#A93270" opacity="1.000000" stroke="none" 
	d="
M240.705261,166.155670 
	C242.214828,166.640060 243.375168,167.068436 244.354340,167.792923 
	C229.710815,170.009521 216.302261,167.109863 203.967438,159.298981 
	C204.186111,158.969009 204.404800,158.639038 204.854248,158.116699 
	C208.574539,160.074310 211.492996,157.227890 214.927338,156.965332 
	C215.703522,158.487305 215.946930,160.820175 216.832047,161.096329 
	C221.865082,162.666626 227.051331,163.745773 232.662720,165.342117 
	C233.767487,165.765427 234.395035,165.838577 235.022568,165.911743 
	C235.476639,165.954926 235.930710,165.998108 236.880249,166.268478 
	C237.900787,166.402878 238.425858,166.310089 238.950943,166.217300 
	C239.419296,166.178085 239.887665,166.138870 240.705261,166.155670 
z"/>
<path fill="#9D3E6E" opacity="1.000000" stroke="none" 
	d="
M255.186813,133.101074 
	C254.144516,134.117081 253.231903,135.329117 252.039352,136.117966 
	C242.849106,142.197021 233.643112,148.254608 224.346436,154.168564 
	C222.341492,155.444000 219.948975,156.110138 217.355072,156.977005 
	C222.905930,152.643814 228.812469,148.356155 234.775497,144.148575 
	C239.213013,141.017410 243.673050,137.911728 248.231079,134.961594 
	C249.690338,134.017105 251.495087,133.606476 253.842072,132.987610 
	C254.757187,133.049438 254.972000,133.075256 255.186813,133.101074 
z"/>
<path fill="#A2386F" opacity="1.000000" stroke="none" 
	d="
M255.569244,133.107788 
	C254.972000,133.075256 254.757187,133.049438 254.219116,132.983276 
	C254.067596,132.478394 254.098465,131.801224 254.431671,131.580551 
	C262.075562,126.517921 270.138336,122.657646 279.642700,123.226425 
	C280.029694,123.249588 280.383911,123.821434 280.888123,124.492455 
	C272.665802,127.603012 264.308746,130.358765 255.569244,133.107788 
z"/>
<path fill="#9B386C" opacity="1.000000" stroke="none" 
	d="
M205.522461,143.481857 
	C205.532501,143.505920 205.512421,143.457794 205.522461,143.481857 
z"/>
<path fill="#080306" opacity="1.000000" stroke="none" 
	d="
M158.736908,128.082870 
	C158.888931,128.798569 159.040939,129.514282 159.258759,130.590179 
	C154.591385,133.473190 152.118286,128.912323 149.832443,126.913162 
	C137.911606,116.487350 127.758499,104.698227 125.579643,88.046791 
	C124.561806,80.268265 123.889587,72.610725 129.651443,65.635323 
	C130.691864,66.056831 131.964828,66.572548 133.708466,67.381851 
	C134.277542,67.991425 134.294449,68.371811 134.485992,68.614159 
	C144.185440,80.886017 149.547775,95.119377 153.431442,110.062378 
	C155.005737,116.119675 156.957123,122.078979 158.736908,128.082870 
z"/>
<path fill="#9D3E6E" opacity="1.000000" stroke="none" 
	d="
M159.026443,127.820786 
	C156.957123,122.078979 155.005737,116.119675 153.431442,110.062378 
	C149.547775,95.119377 144.185440,80.886017 134.485992,68.614159 
	C134.294449,68.371811 134.277542,67.991425 134.048279,67.353378 
	C134.748093,67.324242 135.578796,67.617165 136.740143,67.947830 
	C140.694885,74.011299 144.844986,79.791313 147.804962,86.127319 
	C151.217514,93.432159 154.042969,101.096008 156.248825,108.852654 
	C157.965851,114.890457 158.343231,121.309235 159.026443,127.820786 
z"/>
<path fill="#F597C9" opacity="1.000000" stroke="none" 
	d="
M186.088379,171.955215 
	C185.658829,170.557068 185.229279,169.158920 184.906189,167.406738 
	C188.012177,166.679520 191.011703,166.306320 194.364899,166.034454 
	C199.170563,169.601212 203.542084,173.176361 208.089310,176.511963 
	C223.175705,187.578659 233.435303,202.594421 242.680740,218.461304 
	C243.178391,219.315353 243.715439,220.146454 244.511124,221.193878 
	C248.744797,231.398087 252.976517,241.299179 256.567657,251.427383 
	C259.248383,258.987823 258.324707,261.060394 252.042343,265.931183 
	C248.246399,268.874176 244.297333,271.619720 240.201904,274.704224 
	C235.251785,278.283478 230.587402,281.719025 225.764175,284.914825 
	C219.620911,288.985229 217.382065,287.926331 216.330872,280.634796 
	C212.488327,253.981125 207.212311,227.629227 198.661591,202.059952 
	C195.582413,192.852280 191.387207,184.017807 187.462555,174.724548 
	C187.205383,174.231705 187.114120,174.067841 186.775879,173.576996 
	C186.430618,172.791412 186.259491,172.373306 186.088379,171.955215 
z"/>
<path fill="#F597C9" opacity="1.000000" stroke="none" 
	d="
M203.607925,159.214767 
	C216.302261,167.109863 229.710815,170.009521 244.596176,167.994080 
	C263.952911,166.668121 281.534546,152.214142 287.796875,132.390015 
	C292.075592,118.643829 291.373474,106.024200 282.084015,94.374008 
	C289.412445,93.766800 293.009552,99.560913 297.448273,103.787666 
	C299.281006,105.532883 300.231049,108.205063 301.786377,110.729004 
	C302.367859,111.757866 302.745575,112.513367 303.335510,113.515419 
	C303.894104,114.673622 304.240448,115.585274 304.798157,117.093613 
	C305.631256,118.970993 306.252960,120.251701 306.874695,121.532410 
	C306.965210,122.159912 307.055725,122.787407 307.280304,123.705223 
	C312.423126,141.177948 310.593262,157.562225 301.604797,173.487747 
	C296.062012,179.220230 290.595703,184.584930 284.931458,190.197205 
	C272.680420,197.252884 259.967773,199.879715 245.905716,196.415070 
	C229.872986,191.112640 217.762970,180.329773 204.905350,170.719666 
	C202.253967,168.737961 199.430084,166.987061 196.352615,165.032059 
	C195.044876,164.100662 194.070206,163.266998 192.860168,162.231995 
	C194.161469,160.077377 195.399536,158.027435 196.864136,155.602417 
	C199.085098,156.829788 201.166748,157.980179 203.607925,159.214767 
z"/>
<path fill="#F594C8" opacity="1.000000" stroke="none" 
	d="
M182.380264,165.353577 
	C181.569229,165.319702 181.133865,165.179993 180.355499,165.013901 
	C173.594910,159.234314 174.185150,152.650238 177.896088,145.121094 
	C178.073593,144.353668 178.082626,144.181274 178.091675,144.008881 
	C178.091675,144.008881 178.032776,144.075134 178.061783,144.109222 
	C180.236603,142.314026 182.425507,141.205322 185.100159,143.308105 
	C185.386337,143.533081 186.327698,142.924759 187.087555,142.395294 
	C194.226105,141.357941 197.567245,145.204849 195.303497,151.870285 
	C193.180313,158.121872 189.948685,163.617569 182.380264,165.353577 
z"/>
<path fill="#A73570" opacity="1.000000" stroke="none" 
	d="
M173.016541,174.989929 
	C173.032135,174.977036 173.329453,175.203323 173.329453,175.203323 
	C173.329453,175.203323 173.079834,175.201981 173.027771,175.118256 
	C172.975708,175.034531 173.000961,175.002838 173.016541,174.989929 
z"/>
<path fill="#A0336B" opacity="1.000000" stroke="none" 
	d="
M177.868622,144.124985 
	C178.082626,144.181274 178.073593,144.353668 177.946777,144.756714 
	C177.829025,144.987396 177.414032,144.990158 177.206573,144.994171 
	C177.214584,144.745819 177.430069,144.493454 177.868622,144.124985 
z"/>
<path fill="#A2386F" opacity="1.000000" stroke="none" 
	d="
M306.890869,121.140762 
	C306.252960,120.251701 305.631256,118.970993 304.978790,117.335121 
	C305.601044,118.236336 306.254028,119.492722 306.890869,121.140762 
z"/>
<path fill="#A53A72" opacity="1.000000" stroke="none" 
	d="
M185.894760,172.155441 
	C186.259491,172.373306 186.430618,172.791412 186.632721,173.548309 
	C186.342850,173.376617 186.022003,172.866150 185.894760,172.155441 
z"/>
<path fill="#A23E72" opacity="1.000000" stroke="none" 
	d="
M234.882812,165.647369 
	C234.395035,165.838577 233.767487,165.765427 233.084061,165.439407 
	C233.599808,165.252029 234.171432,165.317505 234.882812,165.647369 
z"/>
<path fill="#A23E72" opacity="1.000000" stroke="none" 
	d="
M238.638092,166.144958 
	C238.425858,166.310089 237.900787,166.402878 237.214569,166.341125 
	C237.477386,166.148605 237.901321,166.110611 238.638092,166.144958 
z"/>
</svg>