<svg version="1.1" id="Layer_1" xmlns="http://www.w3.org/2000/svg" xmlns:xlink="http://www.w3.org/1999/xlink" x="0px" y="0px"
	 width="100%" viewBox="0 0 1024 576" enable-background="new 0 0 1024 576" xml:space="preserve">
<path fill="#000000" opacity="1.000000" stroke="none" 
	d="
M532.451538,266.515869 
	C523.000732,272.746338 522.610962,272.833832 520.210327,262.139771 
	C517.549377,250.286087 515.194458,238.383850 510.858276,226.987122 
	C510.043335,224.845215 509.623749,222.492035 507.538391,221.015259 
	C505.189789,221.874344 504.463074,224.060135 503.406555,225.866837 
	C496.385376,237.873108 491.181915,250.615616 488.058502,264.191925 
	C487.014343,268.730591 485.488922,269.216125 482.231323,265.877167 
	C478.814331,262.374817 474.771576,259.767456 470.707916,257.155426 
	C467.142273,254.863480 466.649048,252.146805 468.578979,248.238174 
	C474.706635,235.828156 481.986206,224.434250 493.780579,216.565414 
	C494.556030,216.048035 495.496765,215.486969 495.466858,213.932556 
	C492.839417,213.338531 490.099091,212.827713 487.419373,212.095154 
	C472.385956,207.985428 464.059784,195.104858 467.416809,181.237503 
	C469.855438,171.163986 480.977051,162.208511 489.823425,163.194992 
	C500.027496,164.332855 507.744843,173.284225 508.286011,184.837265 
	C508.535370,190.160187 508.428009,195.498978 508.569641,200.828247 
	C508.615814,202.566299 508.155609,204.909897 510.778564,205.135132 
	C513.712463,205.387070 516.851440,208.962936 519.634705,204.685394 
	C521.358582,202.035950 523.266541,199.503128 525.152954,196.963272 
	C530.916931,189.202530 538.049805,184.130920 548.308838,184.605606 
	C551.539062,184.755066 554.223938,185.718948 556.403992,187.879547 
	C564.076965,195.483963 566.186218,204.918304 563.758301,215.040207 
	C561.415710,224.806229 554.531250,230.693024 544.747742,232.769806 
	C541.408081,233.478699 537.858093,233.197174 534.516602,233.362640 
	C533.477844,235.490356 534.862000,236.761002 535.622681,238.157013 
	C538.340881,243.145111 540.495483,248.333969 542.129456,253.797821 
	C543.282227,257.652771 542.447144,260.134155 538.893372,262.031891 
	C536.707153,263.199310 534.790222,264.871002 532.451538,266.515869 
M546.405273,202.107910 
	C538.539856,204.433426 532.473083,209.612259 525.535583,214.249802 
	C534.430054,219.426544 547.729797,214.044739 550.377563,205.008102 
	C551.284729,201.912140 550.079834,200.934830 546.405273,202.107910 
M491.506012,183.045364 
	C490.236511,180.584061 489.350433,177.791336 486.285004,176.831421 
	C482.126251,183.917099 487.667084,196.621765 496.816162,200.508194 
	C496.048920,194.485458 494.009918,189.085617 491.506012,183.045364 
z"/>
<path fill="#000000" opacity="1.000000" stroke="none" 
	d="
M657.059448,312.374573 
	C659.822937,322.417816 656.313843,331.525970 654.724304,340.814178 
	C654.240234,343.642853 652.864136,346.549500 654.658203,349.415955 
	C667.232849,346.151276 680.101990,322.091248 678.037476,305.791229 
	C674.761963,304.690491 670.046387,307.883148 667.705261,302.999878 
	C668.160645,302.583374 668.416626,302.162933 668.625122,302.185303 
	C678.843933,303.281952 678.822815,303.281982 680.888123,293.184967 
	C681.320374,291.071533 681.803406,288.939880 682.564514,286.930786 
	C683.247742,285.127045 684.629639,283.744659 686.792969,284.237061 
	C689.042786,284.749115 689.360229,286.632812 689.215454,288.573822 
	C688.981995,291.702972 687.718567,294.719940 688.169617,298.296021 
	C692.421631,300.116364 698.561584,296.410187 702.889587,302.539917 
	C698.050354,302.709991 694.521973,301.304626 690.921814,302.069000 
	C688.728333,302.534668 686.714844,302.856873 686.294739,305.696533 
	C684.153137,320.172821 681.669800,334.609192 681.320618,349.285889 
	C681.232727,352.980713 681.085083,357.632477 684.734741,359.045654 
	C688.812195,360.624512 690.955994,356.102112 693.092102,353.337372 
	C698.604065,346.203400 702.844727,338.236542 707.470764,330.523468 
	C708.426575,328.929932 708.879639,326.640137 711.375427,326.560486 
	C712.068115,327.086639 712.235107,327.787659 711.896118,328.380402 
	C705.947815,338.780487 700.648254,349.600769 692.525757,358.605774 
	C686.859680,364.887482 680.738403,363.890594 677.421570,356.081696 
	C675.703369,352.036621 675.187622,347.721497 675.373840,343.368439 
	C675.474854,341.005585 675.461243,338.731445 674.482971,336.439850 
	C672.261047,336.499054 671.567505,338.428131 670.467224,339.719391 
	C666.896484,343.909973 663.365051,348.163635 658.796326,351.298218 
	C653.593140,354.868011 649.297485,352.706451 648.816467,346.416168 
	C648.250305,339.011566 649.977051,331.851440 651.249939,324.646179 
	C651.885681,321.047668 652.928589,317.512054 652.711548,313.789368 
	C652.492859,310.039276 650.681274,309.573547 647.752808,311.269897 
	C645.378540,312.645233 643.706970,314.745209 642.234802,316.970337 
	C636.847839,325.112579 632.991882,333.900238 631.302368,343.569458 
	C631.187866,344.225159 631.191650,344.915619 630.985413,345.538605 
	C630.318420,347.553680 629.942078,350.235321 626.950623,349.523224 
	C624.414734,348.919495 624.551880,346.503235 624.999634,344.541412 
	C625.676392,341.576691 625.738831,338.635864 625.593079,335.116608 
	C623.030151,336.330017 622.246887,338.684723 620.715759,340.260834 
	C619.441284,341.572662 618.432739,343.154724 617.100098,344.395660 
	C613.494629,347.753204 610.197937,352.241364 604.413818,350.853088 
	C598.062317,349.328674 596.370422,343.999451 595.424866,338.327789 
	C595.210876,337.044128 594.781189,335.796478 594.319458,334.029480 
	C591.282410,335.957794 589.674866,338.692413 587.608276,340.962921 
	C583.793640,345.154022 579.991699,349.390320 575.455933,352.815002 
	C568.331116,358.194427 561.545898,355.779114 559.716675,347.106934 
	C558.903259,343.251099 558.866150,339.231476 558.442200,334.936798 
	C554.375427,335.363678 550.803284,337.369965 546.810852,337.393646 
	C544.822327,337.405457 544.504700,339.543091 543.870544,341.042450 
	C542.233948,344.911407 540.343872,348.614258 536.928528,351.253174 
	C530.119934,356.513855 523.020447,354.130554 520.822205,345.825592 
	C520.055359,342.928497 519.623718,339.959808 519.855164,335.636841 
	C516.690857,339.100708 514.230530,341.664612 511.920502,344.357483 
	C509.404419,347.290619 506.646027,349.932159 503.324127,351.907471 
	C499.144531,354.392792 495.996124,353.108337 494.575439,348.419769 
	C492.954803,343.071472 494.642029,337.847076 495.310028,332.608307 
	C496.045532,326.840332 497.127197,321.117218 497.927856,315.356415 
	C498.173279,313.590546 498.537140,311.393158 496.416809,310.517242 
	C494.492706,309.722412 492.868683,311.063110 491.543274,312.344269 
	C485.106323,318.566315 481.939301,326.662659 479.065735,334.843506 
	C477.750031,338.589172 477.160492,342.585175 476.130402,346.437897 
	C475.651550,348.228821 474.932678,350.201508 472.529175,349.714661 
	C470.405273,349.284393 470.599304,347.386597 470.564819,345.673065 
	C470.509216,342.912262 471.367554,340.107910 470.459259,337.317352 
	C467.890869,337.084564 467.324219,339.244598 466.172119,340.453857 
	C462.381836,344.432159 458.943024,348.802399 454.280121,351.817810 
	C450.057007,354.548798 446.274994,352.991333 445.307556,348.051788 
	C444.471924,343.785126 444.806976,339.462280 445.616821,335.148956 
	C446.813965,328.772705 447.848816,322.360687 448.724762,315.932800 
	C448.976013,314.088776 449.532288,311.598755 447.184326,310.616089 
	C445.032104,309.715332 443.343018,311.360046 441.962311,312.772339 
	C434.229095,320.682220 430.595306,330.626526 428.112854,341.118073 
	C427.615082,343.221832 427.268738,345.370667 426.625671,347.427765 
	C426.148865,348.952942 425.031342,350.058289 423.232513,349.658539 
	C421.493835,349.272186 420.704437,347.856384 420.902191,346.270752 
	C421.869080,338.519348 422.777771,330.749878 424.148621,323.065582 
	C424.626587,320.386444 426.661926,318.033447 429.975342,319.103760 
	C432.560913,319.938934 433.726715,318.677948 434.796967,316.854248 
	C436.417786,314.092377 438.444214,311.665436 440.891846,309.630524 
	C446.472076,304.991241 451.872192,306.689850 453.665649,313.758453 
	C454.700317,317.836548 454.486847,322.043915 453.745605,326.164307 
	C452.803070,331.403198 451.617249,336.598022 450.645691,341.832123 
	C450.169556,344.397461 449.464935,347.016876 450.615265,349.557892 
	C452.301971,350.164764 453.384796,349.143646 454.275696,348.275116 
	C461.856293,340.885315 470.177582,334.085815 473.363220,323.275757 
	C474.556763,319.225616 477.321320,317.643127 481.460205,319.997925 
	C484.004669,316.768280 486.249176,313.446533 488.983276,310.594116 
	C491.297516,308.179718 494.246490,306.222504 497.909882,307.408325 
	C501.809021,308.670563 502.922363,312.035095 503.283844,315.670319 
	C504.106018,323.937958 502.034515,331.868439 500.398621,339.859406 
	C499.779785,342.882355 498.446442,345.937256 499.854675,349.288605 
	C502.787201,349.792633 504.533142,347.719208 506.164734,346.063263 
	C513.051819,339.073181 519.875610,332.083618 523.451355,322.531586 
	C525.084473,318.168976 528.023682,314.359192 533.362488,313.634155 
	C539.071411,312.858795 542.561768,315.717041 541.831970,321.486877 
	C541.205139,326.442108 545.757324,328.853790 546.530518,333.054993 
	C546.725586,334.114960 548.959778,333.864227 550.236023,333.652924 
	C555.439880,332.791382 559.700012,330.552979 561.755859,325.290497 
	C563.413269,321.048096 565.536682,317.054779 569.303528,314.320160 
	C571.866943,312.459198 574.892883,311.889984 577.800049,313.432709 
	C580.396545,314.810547 581.404907,317.336243 581.106812,320.208099 
	C580.809448,323.073029 579.487915,325.198334 576.323975,325.660370 
	C574.867432,323.471680 577.250549,322.642578 577.597229,321.178558 
	C578.036621,319.323212 578.427490,317.314209 576.472412,316.271301 
	C574.445374,315.190063 573.306519,317.092133 572.637573,318.473053 
	C568.017273,328.012054 564.871216,337.967133 565.319092,348.717834 
	C565.487793,352.767334 567.732605,353.872650 571.441040,351.947449 
	C575.367188,349.909241 578.125061,346.463318 581.121704,343.363861 
	C587.935974,336.315918 595.124329,329.566589 598.291443,319.768768 
	C599.436584,316.226227 602.246399,313.603607 605.599792,311.842133 
	C608.836365,310.142029 612.192444,309.828918 614.598145,313.055023 
	C616.905640,316.149506 615.401733,319.137024 613.154541,321.611603 
	C611.945679,322.942871 610.397034,324.028717 608.850708,324.979767 
	C601.442261,329.536346 599.742859,333.150604 601.557922,341.613342 
	C602.106689,344.172394 602.642395,347.186340 605.582764,348.096130 
	C608.323669,348.944244 610.396729,346.841827 612.037598,345.105804 
	C618.418396,338.355011 625.202332,331.900635 628.150513,322.600403 
	C629.491333,318.370728 632.122009,317.824341 636.104797,320.351013 
	C638.674561,316.891724 640.792358,313.081787 644.083862,310.161713 
	C649.499084,305.357635 653.201538,305.845062 657.059448,312.374573 
M529.060913,351.048767 
	C536.536377,351.085358 538.088379,344.918732 540.713684,339.895538 
	C542.028809,337.379272 541.784058,335.258911 539.419983,333.295837 
	C536.864807,331.174042 535.913086,328.555084 537.957092,325.364410 
	C538.537354,324.458649 538.608398,323.152069 538.685242,322.013916 
	C538.845764,319.633209 538.866882,316.857849 536.096191,316.200531 
	C533.632629,315.616089 532.343384,318.035919 531.392029,319.932251 
	C528.130981,326.433136 526.930115,333.491180 526.353882,340.647308 
	C526.074097,344.122162 526.021851,347.680023 529.060913,351.048767 
M609.541199,321.008667 
	C610.210266,320.278412 610.945374,319.597382 611.533936,318.807159 
	C612.595276,317.382202 613.300110,315.688904 611.599854,314.421753 
	C609.780640,313.065887 608.436279,314.693634 607.478638,315.931946 
	C605.922546,317.944000 604.473816,320.119629 604.590088,322.870331 
	C606.622620,323.247284 607.805115,322.302643 609.541199,321.008667 
z"/>
<path fill="#000000" opacity="1.000000" stroke="none" 
	d="
M354.689453,372.277161 
	C348.795441,364.546387 347.306274,356.067383 348.453583,346.999969 
	C349.335663,340.028625 348.441132,339.271545 341.648132,341.404968 
	C331.362396,344.635254 324.353790,351.060883 321.561066,361.702850 
	C321.173645,363.179199 321.309418,365.638489 318.824951,364.848419 
	C316.586487,364.136566 317.685486,362.001465 318.087494,360.531250 
	C321.234894,349.020935 329.164001,342.194183 340.231476,338.919830 
	C346.149597,337.168945 351.266754,335.479401 354.987366,329.521423 
	C359.319305,322.584534 366.877075,320.984100 374.873413,323.067169 
	C375.388550,321.083069 374.085754,320.011658 373.470215,318.752380 
	C366.254578,303.991180 368.883362,289.099609 380.716522,277.685242 
	C389.906189,268.820801 401.248322,265.091675 413.610229,263.807800 
	C416.237366,263.534943 417.903931,264.342834 416.884552,267.537720 
	C412.657501,280.786163 412.531494,294.708405 410.291504,308.285217 
	C407.417328,325.706116 404.574829,343.104248 396.157928,358.967438 
	C391.616058,367.527374 385.250275,374.038147 375.773560,376.986725 
	C368.023682,379.398041 360.981598,378.273773 354.689453,372.277161 
M403.107635,268.731995 
	C397.332703,270.480438 391.780579,272.786499 387.007385,276.507233 
	C378.935791,282.799133 373.439270,290.688782 373.204224,301.338196 
	C372.893311,315.426086 382.996399,331.016205 396.034668,336.776672 
	C396.406464,336.940918 396.957733,336.698914 397.804688,336.603668 
	C403.574951,314.370697 403.618927,291.282654 408.123260,269.150116 
	C406.431488,267.807800 405.111115,268.351868 403.107635,268.731995 
M388.682556,335.868347 
	C385.138794,332.695465 381.595032,329.522583 377.810547,326.134216 
	C378.404968,330.395325 375.903778,332.546387 372.978912,334.311066 
	C370.106293,336.044189 366.914276,336.903625 363.618835,337.593719 
	C351.505859,340.130371 350.826660,341.087860 351.200470,353.654236 
	C351.240051,354.984955 351.182831,356.346954 351.447174,357.637817 
	C352.894470,364.705444 355.195679,371.503815 362.797363,374.001129 
	C370.191895,376.430359 376.915314,374.318939 382.547333,368.960938 
	C387.977875,363.794617 391.596161,357.452240 393.873657,350.401947 
	C397.392487,339.508942 398.025818,342.592834 388.682556,335.868347 
M369.929871,332.601440 
	C371.587372,331.574677 373.964508,330.766205 373.318298,328.336639 
	C372.654083,325.839294 369.993835,325.725769 367.937408,325.647675 
	C363.071320,325.462891 357.488953,329.924591 355.931030,334.888062 
	C359.698334,335.744507 362.042145,335.392059 369.929871,332.601440 
z"/>
<path fill="#000000" opacity="1.000000" stroke="none" 
	d="
M415.404663,428.003357 
	C417.875427,420.762665 420.200928,413.832397 422.480438,406.887054 
	C423.011536,405.268860 423.450745,403.433044 425.472015,403.380157 
	C427.528503,403.326416 428.030579,405.191071 428.571350,406.778137 
	C430.287018,411.812836 431.942993,416.868469 433.718170,421.881989 
	C434.803009,424.945862 435.199707,428.354553 438.389496,430.533630 
	C435.834229,431.809662 433.739624,431.425171 431.441589,431.072418 
	C431.005127,428.560242 432.168060,424.791840 428.193054,424.550659 
	C425.279449,424.373932 421.766815,422.890656 419.424683,426.085846 
	C418.047028,427.965271 419.030975,429.424805 421.474365,430.582733 
	C418.586212,431.718170 416.301147,431.633850 414.017853,431.016449 
	C413.617676,429.549561 414.967072,429.203613 415.404663,428.003357 
M423.378571,412.442261 
	C422.806030,414.341888 422.229279,416.240295 421.662537,418.141663 
	C421.321167,419.286957 421.007538,420.611908 422.281921,421.232697 
	C423.962402,422.051300 426.394531,422.362671 427.504913,421.259033 
	C430.287689,418.493256 427.083344,415.834198 426.465515,413.159973 
	C425.902557,410.723297 425.601379,410.764648 424.035278,410.973938 
	C423.852966,410.998291 423.738403,411.529755 423.378571,412.442261 
z"/>
<path fill="#000000" opacity="1.000000" stroke="none" 
	d="
M547.382690,420.993103 
	C546.513367,428.392395 544.069824,431.140350 538.532227,431.375610 
	C531.854065,431.659302 528.255371,428.852173 527.827454,423.025574 
	C527.343079,416.430084 531.072388,411.357269 536.847351,410.756073 
	C542.887878,410.127258 546.660217,413.638184 547.382690,420.993103 
M536.066895,429.267090 
	C540.366577,430.055511 541.949097,427.286163 543.086060,423.917877 
	C544.333191,420.223328 543.595398,416.992523 540.564331,414.530396 
	C538.138062,412.559540 535.933472,413.423492 534.076172,415.601349 
	C531.006897,419.200439 531.600830,425.067047 536.066895,429.267090 
z"/>
<path fill="#000000" opacity="1.000000" stroke="none" 
	d="
M586.732056,429.340881 
	C589.507263,430.159485 591.853271,428.880127 594.389282,429.456268 
	C592.319641,432.166656 589.303223,431.517151 586.469116,431.481964 
	C583.166992,431.440979 580.767639,430.042816 579.441650,426.919830 
	C576.821045,420.747620 579.426453,413.616516 585.217712,411.392303 
	C588.627502,410.082764 591.789307,410.507660 594.263245,413.379333 
	C595.930115,415.314209 597.211182,417.587097 596.189758,420.207886 
	C595.220215,422.695496 592.687744,421.364319 590.901978,421.888245 
	C590.131042,422.114410 589.249084,421.930084 588.428772,422.026917 
	C586.574585,422.245789 584.107971,421.368683 583.423584,424.035553 
	C582.788269,426.511017 584.377808,428.064178 586.732056,429.340881 
M585.889893,414.455353 
	C584.541504,415.782227 582.255432,417.232880 584.900146,419.009857 
	C586.591614,420.146362 589.011780,420.120789 590.935059,418.829285 
	C592.039307,418.087799 592.034180,416.799225 591.439453,415.747253 
	C590.321228,413.769440 588.641113,413.128418 585.889893,414.455353 
z"/>
<path fill="#000000" opacity="1.000000" stroke="none" 
	d="
M482.095001,422.400116 
	C480.153748,426.377777 482.241577,429.523926 486.530457,429.548309 
	C488.274658,429.558228 490.021149,429.162750 492.094391,428.912048 
	C488.936127,432.937592 480.791443,432.445526 477.884766,428.456482 
	C473.914276,423.007538 477.253693,412.952271 483.687897,411.104309 
	C486.823212,410.203827 489.649933,410.938721 491.874329,413.318054 
	C493.503235,415.060364 494.671082,417.181366 493.886963,419.648315 
	C493.021423,422.371613 490.458740,421.769501 488.407471,421.969879 
	C486.433289,422.162750 484.441803,422.178375 482.095001,422.400116 
M485.560028,419.471405 
	C487.261810,419.287262 489.660309,420.023224 489.565247,417.117920 
	C489.497772,415.054321 488.120941,413.619171 486.002411,413.691681 
	C483.861938,413.764923 482.008453,415.031799 481.583710,417.135010 
	C481.069702,419.680237 483.210693,419.489532 485.560028,419.471405 
z"/>
<path fill="#000000" opacity="1.000000" stroke="none" 
	d="
M608.755676,416.135803 
	C607.777161,414.201508 606.621460,413.115387 604.640320,413.870453 
	C603.501709,414.304413 602.510132,415.093964 602.549316,416.407379 
	C602.612183,418.517242 604.526978,418.843567 605.974182,419.557739 
	C607.310303,420.217072 608.870422,420.577850 609.989807,421.489929 
	C612.547363,423.573914 612.975403,426.270782 611.075256,429.012848 
	C608.982300,432.033081 601.313416,432.740021 598.657837,430.267792 
	C597.013367,428.736938 597.342712,427.128906 598.276794,425.515045 
	C600.370850,425.608978 600.206360,427.453278 601.137329,428.304352 
	C602.352478,429.415283 603.704224,429.845032 605.266541,429.330109 
	C606.651489,428.873627 607.509216,427.874146 607.604187,426.397430 
	C607.724365,424.528229 606.380676,423.828674 604.915649,423.270996 
	C603.982117,422.915649 603.032288,422.593414 602.126465,422.176636 
	C599.755432,421.085754 597.693054,419.740112 598.002625,416.637634 
	C598.261841,414.040222 599.694519,412.396698 602.085632,411.465393 
	C604.898254,410.369904 607.659729,410.289764 610.162476,412.122986 
	C611.541992,413.133484 611.508301,414.795868 611.051575,416.250153 
	C610.614746,417.640930 609.702148,417.413635 608.755676,416.135803 
z"/>
<path fill="#000000" opacity="1.000000" stroke="none" 
	d="
M525.352905,422.975647 
	C526.931274,426.203766 526.044800,428.716644 523.557678,430.219910 
	C520.265442,432.209686 516.529663,432.210419 513.114563,430.443909 
	C510.955750,429.327209 511.290466,427.207977 512.291809,424.691650 
	C513.424316,426.150696 514.265747,427.444611 515.318604,428.534302 
	C516.462280,429.717987 517.974365,429.854492 519.472900,429.241089 
	C520.798401,428.698395 521.630066,427.686371 521.631348,426.193970 
	C521.632812,424.572021 520.357971,423.972321 519.160400,423.398254 
	C517.816589,422.754120 516.376160,422.299500 515.068970,421.593597 
	C512.379883,420.141571 511.129059,417.900391 512.483215,414.976990 
	C514.316406,411.019257 517.794983,410.229095 521.698303,411.026886 
	C524.952698,411.692108 526.030518,413.724091 524.766785,416.874390 
	C522.552490,417.297058 522.670532,415.035248 521.542236,414.243500 
	C519.836182,413.046234 518.354980,413.337341 517.155884,414.784332 
	C515.708191,416.531372 516.568787,417.849731 518.316162,418.751251 
	C520.646912,419.953766 523.421814,420.370941 525.352905,422.975647 
z"/>
<path fill="#000000" opacity="1.000000" stroke="none" 
	d="
M508.006653,416.518982 
	C506.444214,416.783966 506.659668,415.352509 505.957245,414.742554 
	C504.905029,413.828796 503.822937,413.126373 502.369537,413.707764 
	C501.224518,414.165833 500.347961,414.878723 500.333221,416.244537 
	C500.316040,417.833160 501.422852,418.559265 502.648438,419.174103 
	C502.943878,419.322327 503.263062,419.422394 503.566284,419.556122 
	C509.088348,421.991486 510.960175,424.829773 509.237762,428.152374 
	C507.676544,431.164001 500.627319,432.716187 497.075958,430.830261 
	C494.852692,429.649628 494.665649,428.408417 496.246613,425.265045 
	C498.085419,425.516022 498.040192,427.483337 499.119202,428.433655 
	C500.205811,429.390625 501.393555,429.817963 502.779968,429.309296 
	C504.102905,428.823883 505.088745,427.931366 505.287415,426.474060 
	C505.515869,424.797821 504.194702,424.184143 503.022797,423.577728 
	C501.698486,422.892395 500.299286,422.353119 498.962708,421.689758 
	C496.190674,420.313995 494.907928,418.027771 496.074005,415.136993 
	C497.506561,411.585602 500.684906,410.542084 504.256775,410.809692 
	C507.586151,411.059174 508.923004,412.970245 508.006653,416.518982 
z"/>
<path fill="#000000" opacity="1.000000" stroke="none" 
	d="
M443.184296,430.184814 
	C439.402679,425.950470 438.586914,420.461517 440.927979,416.188812 
	C443.038483,412.337036 446.391296,410.524200 450.779022,410.757111 
	C455.609253,411.013489 456.782990,412.832520 455.348450,418.455292 
	C453.059326,415.760590 451.348083,411.373840 447.022949,414.525452 
	C443.308899,417.231720 443.029694,421.327972 444.248199,425.316162 
	C446.131989,431.481781 451.113983,429.394806 455.567963,428.644623 
	C453.902649,431.896393 449.553284,432.400299 443.184296,430.184814 
z"/>
<path fill="#000000" opacity="1.000000" stroke="none" 
	d="
M470.373718,429.464203 
	C471.796265,429.195801 472.899475,428.289185 473.890778,429.558868 
	C470.826904,432.188110 463.865295,432.299408 460.873260,429.777740 
	C457.466675,426.906708 456.705414,420.432312 459.251495,415.984924 
	C461.658325,411.780762 466.864441,409.676697 471.202087,411.087341 
	C474.875183,412.281799 474.708099,414.902679 473.949707,417.830475 
	C473.523376,417.830475 473.056519,417.956512 472.946167,417.811462 
	C471.434845,415.824097 470.751221,412.561554 467.133728,413.746094 
	C463.195679,415.035583 462.100311,418.229126 462.089478,421.990540 
	C462.079773,425.355408 462.825165,428.346863 466.559143,429.391998 
	C467.639648,429.694397 468.858429,429.502869 470.373718,429.464203 
z"/>
<path fill="#000000" opacity="1.000000" stroke="none" 
	d="
M576.066345,412.271973 
	C576.158569,413.499329 575.713318,414.138306 574.908997,414.542694 
	C567.830078,418.101715 566.033081,423.816498 569.977844,430.804962 
	C567.726624,431.769440 565.562561,431.510254 563.034607,430.881439 
	C564.243347,427.520966 563.872925,424.240723 563.957275,420.982391 
	C564.038147,417.861542 563.839600,414.787903 561.984619,410.242584 
	C567.267395,413.176758 571.630798,410.836884 576.066345,412.271973 
z"/>
<path fill="#000000" opacity="1.000000" stroke="none" 
	d="
M551.604736,430.840607 
	C553.679199,424.369293 552.869568,418.095245 551.455139,411.649231 
	C554.818542,410.227966 556.128723,411.749512 556.249023,414.843414 
	C556.364502,417.813507 556.312378,420.790955 556.297791,423.765015 
	C556.285889,426.191467 556.073669,428.644684 558.127380,430.643494 
	C555.717224,431.720123 553.780334,431.449127 551.604736,430.840607 
z"/>
</svg>